<svg xmlns="http://www.w3.org/2000/svg" viewBox="0 0 1140 335" font-family="Avenir, Helvetica, sans-serif">
<rect width="1140" height="335" fill="none"/>
<text x="112" y="39" text-anchor="middle" font-size="18" fill="#888">Mean x</text>
<text x="112" y="67" text-anchor="middle" font-size="24" font-weight="700" fill="#00693e">9.0</text>
<line x1="203" y1="21" x2="203" y2="75" stroke="#ddd" stroke-width="1"/>
<text x="295" y="39" text-anchor="middle" font-size="18" fill="#888">Mean y</text>
<text x="295" y="67" text-anchor="middle" font-size="24" font-weight="700" fill="#00693e">7.50</text>
<line x1="387" y1="21" x2="387" y2="75" stroke="#ddd" stroke-width="1"/>
<text x="478" y="39" text-anchor="middle" font-size="18" fill="#888">Var x</text>
<text x="478" y="67" text-anchor="middle" font-size="24" font-weight="700" fill="#00693e">11.0</text>
<line x1="570" y1="21" x2="570" y2="75" stroke="#ddd" stroke-width="1"/>
<text x="662" y="39" text-anchor="middle" font-size="18" fill="#888">Var y</text>
<text x="662" y="67" text-anchor="middle" font-size="24" font-weight="700" fill="#00693e">4.13</text>
<line x1="753" y1="21" x2="753" y2="75" stroke="#ddd" stroke-width="1"/>
<text x="845" y="39" text-anchor="middle" font-size="18" fill="#888">r</text>
<text x="845" y="67" text-anchor="middle" font-size="24" font-weight="700" fill="#00693e">0.816</text>
<line x1="937" y1="21" x2="937" y2="75" stroke="#ddd" stroke-width="1"/>
<text x="1028" y="39" text-anchor="middle" font-size="18" fill="#888">Fit</text>
<text x="1028" y="67" text-anchor="middle" font-size="24" font-weight="700" fill="#00693e">y = 3 + 0.5x</text>
<text x="150" y="122" text-anchor="middle" font-size="22" font-weight="700" fill="#00693e">Dataset I</text>
<line x1="60" y1="300" x2="268" y2="300" stroke="#999" stroke-width="1.5"/>
<line x1="60" y1="132" x2="60" y2="300" stroke="#999" stroke-width="1.5"/>
<line x1="95" y1="132" x2="95" y2="300" stroke="#eee" stroke-width="0.5"/>
<text x="95" y="316" text-anchor="middle" font-size="13" fill="#999">5</text>
<line x1="152" y1="132" x2="152" y2="300" stroke="#eee" stroke-width="0.5"/>
<text x="152" y="316" text-anchor="middle" font-size="13" fill="#999">10</text>
<line x1="210" y1="132" x2="210" y2="300" stroke="#eee" stroke-width="0.5"/>
<text x="210" y="316" text-anchor="middle" font-size="13" fill="#999">15</text>
<line x1="60" y1="272" x2="268" y2="272" stroke="#eee" stroke-width="0.5"/>
<text x="52" y="277" text-anchor="end" font-size="13" fill="#999">4</text>
<line x1="60" y1="216" x2="268" y2="216" stroke="#eee" stroke-width="0.5"/>
<text x="52" y="221" text-anchor="end" font-size="13" fill="#999">8</text>
<line x1="60" y1="160" x2="268" y2="160" stroke="#eee" stroke-width="0.5"/>
<text x="52" y="165" text-anchor="end" font-size="13" fill="#999">12</text>
<circle cx="152.4" cy="215.4" r="7" fill="#00693e" opacity="0.75"/>
<circle cx="129.3" cy="230.7" r="7" fill="#00693e" opacity="0.75"/>
<circle cx="187.1" cy="221.9" r="7" fill="#00693e" opacity="0.75"/>
<circle cx="140.9" cy="204.7" r="7" fill="#00693e" opacity="0.75"/>
<circle cx="164.0" cy="211.4" r="7" fill="#00693e" opacity="0.75"/>
<circle cx="198.7" cy="188.6" r="7" fill="#00693e" opacity="0.75"/>
<circle cx="106.2" cy="226.6" r="7" fill="#00693e" opacity="0.75"/>
<circle cx="83.1" cy="268.4" r="7" fill="#00693e" opacity="0.75"/>
<circle cx="175.6" cy="176.2" r="7" fill="#00693e" opacity="0.75"/>
<circle cx="117.8" cy="260.5" r="7" fill="#00693e" opacity="0.75"/>
<circle cx="94.7" cy="248.5" r="7" fill="#00693e" opacity="0.75"/>
<line x1="72" y1="265" x2="245" y2="160" stroke="#00693e" stroke-width="2.5" stroke-dasharray="8,5" opacity="0.5"/>
<text x="430" y="122" text-anchor="middle" font-size="22" font-weight="700" fill="#267aba">Dataset II</text>
<line x1="340" y1="300" x2="548" y2="300" stroke="#999" stroke-width="1.5"/>
<line x1="340" y1="132" x2="340" y2="300" stroke="#999" stroke-width="1.5"/>
<line x1="375" y1="132" x2="375" y2="300" stroke="#eee" stroke-width="0.5"/>
<text x="375" y="316" text-anchor="middle" font-size="13" fill="#999">5</text>
<line x1="432" y1="132" x2="432" y2="300" stroke="#eee" stroke-width="0.5"/>
<text x="432" y="316" text-anchor="middle" font-size="13" fill="#999">10</text>
<line x1="490" y1="132" x2="490" y2="300" stroke="#eee" stroke-width="0.5"/>
<text x="490" y="316" text-anchor="middle" font-size="13" fill="#999">15</text>
<line x1="340" y1="272" x2="548" y2="272" stroke="#eee" stroke-width="0.5"/>
<text x="332" y="277" text-anchor="end" font-size="13" fill="#999">4</text>
<line x1="340" y1="216" x2="548" y2="216" stroke="#eee" stroke-width="0.5"/>
<text x="332" y="221" text-anchor="end" font-size="13" fill="#999">8</text>
<line x1="340" y1="160" x2="548" y2="160" stroke="#eee" stroke-width="0.5"/>
<text x="332" y="165" text-anchor="end" font-size="13" fill="#999">12</text>
<circle cx="432.4" cy="200.0" r="7" fill="#267aba" opacity="0.75"/>
<circle cx="409.3" cy="214.0" r="7" fill="#267aba" opacity="0.75"/>
<circle cx="467.1" cy="205.6" r="7" fill="#267aba" opacity="0.75"/>
<circle cx="420.9" cy="205.2" r="7" fill="#267aba" opacity="0.75"/>
<circle cx="444.0" cy="198.4" r="7" fill="#267aba" opacity="0.75"/>
<circle cx="478.7" cy="214.6" r="7" fill="#267aba" opacity="0.75"/>
<circle cx="386.2" cy="242.2" r="7" fill="#267aba" opacity="0.75"/>
<circle cx="363.1" cy="284.6" r="7" fill="#267aba" opacity="0.75"/>
<circle cx="455.6" cy="200.2" r="7" fill="#267aba" opacity="0.75"/>
<circle cx="397.8" cy="226.4" r="7" fill="#267aba" opacity="0.75"/>
<circle cx="374.7" cy="261.6" r="7" fill="#267aba" opacity="0.75"/>
<line x1="352" y1="265" x2="525" y2="160" stroke="#267aba" stroke-width="2.5" stroke-dasharray="8,5" opacity="0.5"/>
<text x="710" y="122" text-anchor="middle" font-size="22" font-weight="700" fill="#ffa00f">Dataset III</text>
<line x1="620" y1="300" x2="828" y2="300" stroke="#999" stroke-width="1.5"/>
<line x1="620" y1="132" x2="620" y2="300" stroke="#999" stroke-width="1.5"/>
<line x1="655" y1="132" x2="655" y2="300" stroke="#eee" stroke-width="0.5"/>
<text x="655" y="316" text-anchor="middle" font-size="13" fill="#999">5</text>
<line x1="712" y1="132" x2="712" y2="300" stroke="#eee" stroke-width="0.5"/>
<text x="712" y="316" text-anchor="middle" font-size="13" fill="#999">10</text>
<line x1="770" y1="132" x2="770" y2="300" stroke="#eee" stroke-width="0.5"/>
<text x="770" y="316" text-anchor="middle" font-size="13" fill="#999">15</text>
<line x1="620" y1="272" x2="828" y2="272" stroke="#eee" stroke-width="0.5"/>
<text x="612" y="277" text-anchor="end" font-size="13" fill="#999">4</text>
<line x1="620" y1="216" x2="828" y2="216" stroke="#eee" stroke-width="0.5"/>
<text x="612" y="221" text-anchor="end" font-size="13" fill="#999">8</text>
<line x1="620" y1="160" x2="828" y2="160" stroke="#eee" stroke-width="0.5"/>
<text x="612" y="165" text-anchor="end" font-size="13" fill="#999">12</text>
<circle cx="712.4" cy="223.6" r="7" fill="#ffa00f" opacity="0.75"/>
<circle cx="689.3" cy="233.2" r="7" fill="#ffa00f" opacity="0.75"/>
<circle cx="747.1" cy="149.6" r="7" fill="#ffa00f" opacity="0.75"/>
<circle cx="700.9" cy="228.5" r="7" fill="#ffa00f" opacity="0.75"/>
<circle cx="724.0" cy="218.7" r="7" fill="#ffa00f" opacity="0.75"/>
<circle cx="758.7" cy="204.2" r="7" fill="#ffa00f" opacity="0.75"/>
<circle cx="666.2" cy="242.9" r="7" fill="#ffa00f" opacity="0.75"/>
<circle cx="643.1" cy="252.5" r="7" fill="#ffa00f" opacity="0.75"/>
<circle cx="735.6" cy="213.9" r="7" fill="#ffa00f" opacity="0.75"/>
<circle cx="677.8" cy="238.1" r="7" fill="#ffa00f" opacity="0.75"/>
<circle cx="654.7" cy="247.8" r="7" fill="#ffa00f" opacity="0.75"/>
<line x1="632" y1="265" x2="805" y2="160" stroke="#ffa00f" stroke-width="2.5" stroke-dasharray="8,5" opacity="0.5"/>
<text x="990" y="122" text-anchor="middle" font-size="22" font-weight="700" fill="#9d162e">Dataset IV</text>
<line x1="900" y1="300" x2="1108" y2="300" stroke="#999" stroke-width="1.5"/>
<line x1="900" y1="132" x2="900" y2="300" stroke="#999" stroke-width="1.5"/>
<line x1="935" y1="132" x2="935" y2="300" stroke="#eee" stroke-width="0.5"/>
<text x="935" y="316" text-anchor="middle" font-size="13" fill="#999">5</text>
<line x1="992" y1="132" x2="992" y2="300" stroke="#eee" stroke-width="0.5"/>
<text x="992" y="316" text-anchor="middle" font-size="13" fill="#999">10</text>
<line x1="1050" y1="132" x2="1050" y2="300" stroke="#eee" stroke-width="0.5"/>
<text x="1050" y="316" text-anchor="middle" font-size="13" fill="#999">15</text>
<line x1="900" y1="272" x2="1108" y2="272" stroke="#eee" stroke-width="0.5"/>
<text x="892" y="277" text-anchor="end" font-size="13" fill="#999">4</text>
<line x1="900" y1="216" x2="1108" y2="216" stroke="#eee" stroke-width="0.5"/>
<text x="892" y="221" text-anchor="end" font-size="13" fill="#999">8</text>
<line x1="900" y1="160" x2="1108" y2="160" stroke="#eee" stroke-width="0.5"/>
<text x="892" y="165" text-anchor="end" font-size="13" fill="#999">12</text>
<circle cx="969.3" cy="235.9" r="7" fill="#9d162e" opacity="0.75"/>
<circle cx="969.3" cy="247.4" r="7" fill="#9d162e" opacity="0.75"/>
<circle cx="969.3" cy="220.1" r="7" fill="#9d162e" opacity="0.75"/>
<circle cx="969.3" cy="204.2" r="7" fill="#9d162e" opacity="0.75"/>
<circle cx="969.3" cy="209.4" r="7" fill="#9d162e" opacity="0.75"/>
<circle cx="969.3" cy="229.4" r="7" fill="#9d162e" opacity="0.75"/>
<circle cx="969.3" cy="254.5" r="7" fill="#9d162e" opacity="0.75"/>
<circle cx="1096.4" cy="153.0" r="7" fill="#9d162e" opacity="0.75"/>
<circle cx="969.3" cy="250.2" r="7" fill="#9d162e" opacity="0.75"/>
<circle cx="969.3" cy="217.3" r="7" fill="#9d162e" opacity="0.75"/>
<circle cx="969.3" cy="231.5" r="7" fill="#9d162e" opacity="0.75"/>
<line x1="912" y1="265" x2="1085" y2="160" stroke="#9d162e" stroke-width="2.5" stroke-dasharray="8,5" opacity="0.5"/>
</svg>