<svg xmlns="http://www.w3.org/2000/svg" viewBox="0 0 900 550" font-family="Avenir, Helvetica, sans-serif">
<rect width="900" height="550" fill="none"/>
<rect x="100" y="50" width="65" height="60" rx="4" fill="rgb(161,199,179)" stroke="white" stroke-width="1.5"/>
<rect x="169" y="50" width="65" height="60" rx="4" fill="rgb(138,186,162)" stroke="white" stroke-width="1.5"/>
<rect x="238" y="50" width="65" height="60" rx="4" fill="rgb(115,172,146)" stroke="white" stroke-width="1.5"/>
<rect x="307" y="50" width="65" height="60" rx="4" fill="rgb(161,199,179)" stroke="white" stroke-width="1.5"/>
<rect x="376" y="50" width="65" height="60" rx="4" fill="rgb(138,186,162)" stroke="white" stroke-width="1.5"/>
<rect x="445" y="50" width="65" height="60" rx="4" fill="rgb(92,159,129)" stroke="white" stroke-width="1.5"/>
<rect x="583" y="50" width="65" height="60" rx="4" fill="rgb(69,145,112)" stroke="white" stroke-width="1.5"/>
<rect x="652" y="50" width="65" height="60" rx="4" fill="rgb(184,213,196)" stroke="white" stroke-width="1.5"/>
<rect x="721" y="50" width="65" height="60" rx="4" fill="rgb(161,199,179)" stroke="white" stroke-width="1.5"/>
<rect x="100" y="114" width="65" height="60" rx="4" fill="rgb(138,186,162)" stroke="white" stroke-width="1.5"/>
<rect x="169" y="114" width="65" height="60" rx="4" fill="rgb(161,199,179)" stroke="white" stroke-width="1.5"/>
<rect x="238" y="114" width="65" height="60" rx="4" fill="rgb(138,186,162)" stroke="white" stroke-width="1.5"/>
<rect x="307" y="114" width="65" height="60" rx="4" fill="rgb(115,172,146)" stroke="white" stroke-width="1.5"/>
<rect x="376" y="114" width="65" height="60" rx="4" fill="rgb(69,145,112)" stroke="white" stroke-width="1.5"/>
<rect x="445" y="114" width="65" height="60" rx="4" fill="rgb(115,172,146)" stroke="white" stroke-width="1.5"/>
<rect x="514" y="114" width="65" height="60" rx="4" fill="rgb(92,159,129)" stroke="white" stroke-width="1.5"/>
<rect x="583" y="114" width="65" height="60" rx="4" fill="rgb(45,132,95)" stroke="white" stroke-width="1.5"/>
<rect x="652" y="114" width="65" height="60" rx="4" fill="rgb(22,118,78)" stroke="white" stroke-width="1.5"/>
<rect x="721" y="114" width="65" height="60" rx="4" fill="rgb(138,186,162)" stroke="white" stroke-width="1.5"/>
<rect x="100" y="178" width="65" height="60" rx="4" fill="rgb(22,118,78)" stroke="white" stroke-width="1.5"/>
<rect x="169" y="178" width="65" height="60" rx="4" fill="rgb(184,213,196)" stroke="white" stroke-width="1.5"/>
<rect x="238" y="178" width="65" height="60" rx="4" fill="rgb(161,199,179)" stroke="white" stroke-width="1.5"/>
<rect x="307" y="178" width="65" height="60" rx="4" fill="rgb(115,172,146)" stroke="white" stroke-width="1.5"/>
<rect x="376" y="178" width="65" height="60" rx="4" fill="rgb(138,186,162)" stroke="white" stroke-width="1.5"/>
<rect x="445" y="178" width="65" height="60" rx="4" fill="rgb(161,199,179)" stroke="white" stroke-width="1.5"/>
<rect x="514" y="178" width="65" height="60" rx="4" fill="rgb(92,159,129)" stroke="white" stroke-width="1.5"/>
<rect x="583" y="178" width="65" height="60" rx="4" fill="rgb(69,145,112)" stroke="white" stroke-width="1.5"/>
<rect x="652" y="178" width="65" height="60" rx="4" fill="rgb(115,172,146)" stroke="white" stroke-width="1.5"/>
<rect x="169" y="242" width="65" height="60" rx="4" fill="rgb(161,199,179)" stroke="white" stroke-width="1.5"/>
<rect x="238" y="242" width="65" height="60" rx="4" fill="rgb(115,172,146)" stroke="white" stroke-width="1.5"/>
<rect x="307" y="242" width="65" height="60" rx="4" fill="rgb(138,186,162)" stroke="white" stroke-width="1.5"/>
<rect x="376" y="242" width="65" height="60" rx="4" fill="rgb(161,199,179)" stroke="white" stroke-width="1.5"/>
<rect x="445" y="242" width="65" height="60" rx="4" fill="rgb(138,186,162)" stroke="white" stroke-width="1.5"/>
<rect x="514" y="242" width="65" height="60" rx="4" fill="rgb(115,172,146)" stroke="white" stroke-width="1.5"/>
<rect x="583" y="242" width="65" height="60" rx="4" fill="rgb(138,186,162)" stroke="white" stroke-width="1.5"/>
<rect x="169" y="306" width="65" height="60" rx="4" fill="rgb(92,159,129)" stroke="white" stroke-width="1.5"/>
<rect x="238" y="306" width="65" height="60" rx="4" fill="rgb(161,199,179)" stroke="white" stroke-width="1.5"/>
<rect x="307" y="306" width="65" height="60" rx="4" fill="rgb(138,186,162)" stroke="white" stroke-width="1.5"/>
<rect x="376" y="306" width="65" height="60" rx="4" fill="rgb(161,199,179)" stroke="white" stroke-width="1.5"/>
<rect x="445" y="306" width="65" height="60" rx="4" fill="rgb(184,213,196)" stroke="white" stroke-width="1.5"/>
<rect x="514" y="306" width="65" height="60" rx="4" fill="rgb(161,199,179)" stroke="white" stroke-width="1.5"/>
<rect x="583" y="306" width="65" height="60" rx="4" fill="rgb(115,172,146)" stroke="white" stroke-width="1.5"/>
<rect x="652" y="306" width="65" height="60" rx="4" fill="rgb(45,132,95)" stroke="white" stroke-width="1.5"/>
<rect x="307" y="370" width="65" height="60" rx="4" fill="rgb(69,145,112)" stroke="white" stroke-width="1.5"/>
<rect x="810" y="80" width="14" height="1" fill="rgb(0,105,62)"/>
<rect x="810" y="81" width="14" height="1" fill="rgb(1,105,62)"/>
<rect x="810" y="82" width="14" height="1" fill="rgb(2,106,63)"/>
<rect x="810" y="83" width="14" height="1" fill="rgb(3,107,64)"/>
<rect x="810" y="84" width="14" height="1" fill="rgb(4,107,65)"/>
<rect x="810" y="85" width="14" height="1" fill="rgb(5,108,66)"/>
<rect x="810" y="86" width="14" height="1" fill="rgb(6,109,67)"/>
<rect x="810" y="87" width="14" height="1" fill="rgb(8,109,67)"/>
<rect x="810" y="88" width="14" height="1" fill="rgb(9,110,68)"/>
<rect x="810" y="89" width="14" height="1" fill="rgb(10,111,69)"/>
<rect x="810" y="90" width="14" height="1" fill="rgb(11,111,70)"/>
<rect x="810" y="91" width="14" height="1" fill="rgb(12,112,71)"/>
<rect x="810" y="92" width="14" height="1" fill="rgb(13,113,72)"/>
<rect x="810" y="93" width="14" height="1" fill="rgb(14,113,72)"/>
<rect x="810" y="94" width="14" height="1" fill="rgb(16,114,73)"/>
<rect x="810" y="95" width="14" height="1" fill="rgb(17,115,74)"/>
<rect x="810" y="96" width="14" height="1" fill="rgb(18,115,75)"/>
<rect x="810" y="97" width="14" height="1" fill="rgb(19,116,76)"/>
<rect x="810" y="98" width="14" height="1" fill="rgb(20,117,77)"/>
<rect x="810" y="99" width="14" height="1" fill="rgb(21,117,77)"/>
<rect x="810" y="100" width="14" height="1" fill="rgb(22,118,78)"/>
<rect x="810" y="101" width="14" height="1" fill="rgb(24,119,79)"/>
<rect x="810" y="102" width="14" height="1" fill="rgb(25,119,80)"/>
<rect x="810" y="103" width="14" height="1" fill="rgb(26,120,81)"/>
<rect x="810" y="104" width="14" height="1" fill="rgb(27,121,82)"/>
<rect x="810" y="105" width="14" height="1" fill="rgb(28,121,83)"/>
<rect x="810" y="106" width="14" height="1" fill="rgb(29,122,83)"/>
<rect x="810" y="107" width="14" height="1" fill="rgb(31,123,84)"/>
<rect x="810" y="108" width="14" height="1" fill="rgb(32,123,85)"/>
<rect x="810" y="109" width="14" height="1" fill="rgb(33,124,86)"/>
<rect x="810" y="110" width="14" height="1" fill="rgb(34,125,87)"/>
<rect x="810" y="111" width="14" height="1" fill="rgb(35,125,88)"/>
<rect x="810" y="112" width="14" height="1" fill="rgb(36,126,88)"/>
<rect x="810" y="113" width="14" height="1" fill="rgb(37,127,89)"/>
<rect x="810" y="114" width="14" height="1" fill="rgb(39,127,90)"/>
<rect x="810" y="115" width="14" height="1" fill="rgb(40,128,91)"/>
<rect x="810" y="116" width="14" height="1" fill="rgb(41,129,92)"/>
<rect x="810" y="117" width="14" height="1" fill="rgb(42,129,93)"/>
<rect x="810" y="118" width="14" height="1" fill="rgb(43,130,93)"/>
<rect x="810" y="119" width="14" height="1" fill="rgb(44,131,94)"/>
<rect x="810" y="120" width="14" height="1" fill="rgb(45,132,95)"/>
<rect x="810" y="121" width="14" height="1" fill="rgb(47,132,96)"/>
<rect x="810" y="122" width="14" height="1" fill="rgb(48,133,97)"/>
<rect x="810" y="123" width="14" height="1" fill="rgb(49,134,98)"/>
<rect x="810" y="124" width="14" height="1" fill="rgb(50,134,98)"/>
<rect x="810" y="125" width="14" height="1" fill="rgb(51,135,99)"/>
<rect x="810" y="126" width="14" height="1" fill="rgb(52,136,100)"/>
<rect x="810" y="127" width="14" height="1" fill="rgb(54,136,101)"/>
<rect x="810" y="128" width="14" height="1" fill="rgb(55,137,102)"/>
<rect x="810" y="129" width="14" height="1" fill="rgb(56,138,103)"/>
<rect x="810" y="130" width="14" height="1" fill="rgb(57,138,104)"/>
<rect x="810" y="131" width="14" height="1" fill="rgb(58,139,104)"/>
<rect x="810" y="132" width="14" height="1" fill="rgb(59,140,105)"/>
<rect x="810" y="133" width="14" height="1" fill="rgb(60,140,106)"/>
<rect x="810" y="134" width="14" height="1" fill="rgb(62,141,107)"/>
<rect x="810" y="135" width="14" height="1" fill="rgb(63,142,108)"/>
<rect x="810" y="136" width="14" height="1" fill="rgb(64,142,109)"/>
<rect x="810" y="137" width="14" height="1" fill="rgb(65,143,109)"/>
<rect x="810" y="138" width="14" height="1" fill="rgb(66,144,110)"/>
<rect x="810" y="139" width="14" height="1" fill="rgb(67,144,111)"/>
<rect x="810" y="140" width="14" height="1" fill="rgb(69,145,112)"/>
<rect x="810" y="141" width="14" height="1" fill="rgb(70,146,113)"/>
<rect x="810" y="142" width="14" height="1" fill="rgb(71,146,114)"/>
<rect x="810" y="143" width="14" height="1" fill="rgb(72,147,114)"/>
<rect x="810" y="144" width="14" height="1" fill="rgb(73,148,115)"/>
<rect x="810" y="145" width="14" height="1" fill="rgb(74,148,116)"/>
<rect x="810" y="146" width="14" height="1" fill="rgb(75,149,117)"/>
<rect x="810" y="147" width="14" height="1" fill="rgb(77,150,118)"/>
<rect x="810" y="148" width="14" height="1" fill="rgb(78,150,119)"/>
<rect x="810" y="149" width="14" height="1" fill="rgb(79,151,119)"/>
<rect x="810" y="150" width="14" height="1" fill="rgb(80,152,120)"/>
<rect x="810" y="151" width="14" height="1" fill="rgb(81,152,121)"/>
<rect x="810" y="152" width="14" height="1" fill="rgb(82,153,122)"/>
<rect x="810" y="153" width="14" height="1" fill="rgb(83,154,123)"/>
<rect x="810" y="154" width="14" height="1" fill="rgb(85,154,124)"/>
<rect x="810" y="155" width="14" height="1" fill="rgb(86,155,125)"/>
<rect x="810" y="156" width="14" height="1" fill="rgb(87,156,125)"/>
<rect x="810" y="157" width="14" height="1" fill="rgb(88,156,126)"/>
<rect x="810" y="158" width="14" height="1" fill="rgb(89,157,127)"/>
<rect x="810" y="159" width="14" height="1" fill="rgb(90,158,128)"/>
<rect x="810" y="160" width="14" height="1" fill="rgb(92,159,129)"/>
<rect x="810" y="161" width="14" height="1" fill="rgb(93,159,130)"/>
<rect x="810" y="162" width="14" height="1" fill="rgb(94,160,130)"/>
<rect x="810" y="163" width="14" height="1" fill="rgb(95,161,131)"/>
<rect x="810" y="164" width="14" height="1" fill="rgb(96,161,132)"/>
<rect x="810" y="165" width="14" height="1" fill="rgb(97,162,133)"/>
<rect x="810" y="166" width="14" height="1" fill="rgb(98,163,134)"/>
<rect x="810" y="167" width="14" height="1" fill="rgb(100,163,135)"/>
<rect x="810" y="168" width="14" height="1" fill="rgb(101,164,135)"/>
<rect x="810" y="169" width="14" height="1" fill="rgb(102,165,136)"/>
<rect x="810" y="170" width="14" height="1" fill="rgb(103,165,137)"/>
<rect x="810" y="171" width="14" height="1" fill="rgb(104,166,138)"/>
<rect x="810" y="172" width="14" height="1" fill="rgb(105,167,139)"/>
<rect x="810" y="173" width="14" height="1" fill="rgb(106,167,140)"/>
<rect x="810" y="174" width="14" height="1" fill="rgb(108,168,140)"/>
<rect x="810" y="175" width="14" height="1" fill="rgb(109,169,141)"/>
<rect x="810" y="176" width="14" height="1" fill="rgb(110,169,142)"/>
<rect x="810" y="177" width="14" height="1" fill="rgb(111,170,143)"/>
<rect x="810" y="178" width="14" height="1" fill="rgb(112,171,144)"/>
<rect x="810" y="179" width="14" height="1" fill="rgb(113,171,145)"/>
<rect x="810" y="180" width="14" height="1" fill="rgb(115,172,146)"/>
<rect x="810" y="181" width="14" height="1" fill="rgb(116,173,146)"/>
<rect x="810" y="182" width="14" height="1" fill="rgb(117,173,147)"/>
<rect x="810" y="183" width="14" height="1" fill="rgb(118,174,148)"/>
<rect x="810" y="184" width="14" height="1" fill="rgb(119,175,149)"/>
<rect x="810" y="185" width="14" height="1" fill="rgb(120,175,150)"/>
<rect x="810" y="186" width="14" height="1" fill="rgb(121,176,151)"/>
<rect x="810" y="187" width="14" height="1" fill="rgb(123,177,151)"/>
<rect x="810" y="188" width="14" height="1" fill="rgb(124,177,152)"/>
<rect x="810" y="189" width="14" height="1" fill="rgb(125,178,153)"/>
<rect x="810" y="190" width="14" height="1" fill="rgb(126,179,154)"/>
<rect x="810" y="191" width="14" height="1" fill="rgb(127,179,155)"/>
<rect x="810" y="192" width="14" height="1" fill="rgb(128,180,156)"/>
<rect x="810" y="193" width="14" height="1" fill="rgb(129,181,156)"/>
<rect x="810" y="194" width="14" height="1" fill="rgb(131,181,157)"/>
<rect x="810" y="195" width="14" height="1" fill="rgb(132,182,158)"/>
<rect x="810" y="196" width="14" height="1" fill="rgb(133,183,159)"/>
<rect x="810" y="197" width="14" height="1" fill="rgb(134,183,160)"/>
<rect x="810" y="198" width="14" height="1" fill="rgb(135,184,161)"/>
<rect x="810" y="199" width="14" height="1" fill="rgb(136,185,161)"/>
<rect x="810" y="200" width="14" height="1" fill="rgb(138,186,162)"/>
<rect x="810" y="201" width="14" height="1" fill="rgb(139,186,163)"/>
<rect x="810" y="202" width="14" height="1" fill="rgb(140,187,164)"/>
<rect x="810" y="203" width="14" height="1" fill="rgb(141,188,165)"/>
<rect x="810" y="204" width="14" height="1" fill="rgb(142,188,166)"/>
<rect x="810" y="205" width="14" height="1" fill="rgb(143,189,167)"/>
<rect x="810" y="206" width="14" height="1" fill="rgb(144,190,167)"/>
<rect x="810" y="207" width="14" height="1" fill="rgb(146,190,168)"/>
<rect x="810" y="208" width="14" height="1" fill="rgb(147,191,169)"/>
<rect x="810" y="209" width="14" height="1" fill="rgb(148,192,170)"/>
<rect x="810" y="210" width="14" height="1" fill="rgb(149,192,171)"/>
<rect x="810" y="211" width="14" height="1" fill="rgb(150,193,172)"/>
<rect x="810" y="212" width="14" height="1" fill="rgb(151,194,172)"/>
<rect x="810" y="213" width="14" height="1" fill="rgb(152,194,173)"/>
<rect x="810" y="214" width="14" height="1" fill="rgb(154,195,174)"/>
<rect x="810" y="215" width="14" height="1" fill="rgb(155,196,175)"/>
<rect x="810" y="216" width="14" height="1" fill="rgb(156,196,176)"/>
<rect x="810" y="217" width="14" height="1" fill="rgb(157,197,177)"/>
<rect x="810" y="218" width="14" height="1" fill="rgb(158,198,177)"/>
<rect x="810" y="219" width="14" height="1" fill="rgb(159,198,178)"/>
<rect x="810" y="220" width="14" height="1" fill="rgb(161,199,179)"/>
<rect x="810" y="221" width="14" height="1" fill="rgb(162,200,180)"/>
<rect x="810" y="222" width="14" height="1" fill="rgb(163,200,181)"/>
<rect x="810" y="223" width="14" height="1" fill="rgb(164,201,182)"/>
<rect x="810" y="224" width="14" height="1" fill="rgb(165,202,182)"/>
<rect x="810" y="225" width="14" height="1" fill="rgb(166,202,183)"/>
<rect x="810" y="226" width="14" height="1" fill="rgb(167,203,184)"/>
<rect x="810" y="227" width="14" height="1" fill="rgb(169,204,185)"/>
<rect x="810" y="228" width="14" height="1" fill="rgb(170,204,186)"/>
<rect x="810" y="229" width="14" height="1" fill="rgb(171,205,187)"/>
<rect x="810" y="230" width="14" height="1" fill="rgb(172,206,188)"/>
<rect x="810" y="231" width="14" height="1" fill="rgb(173,206,188)"/>
<rect x="810" y="232" width="14" height="1" fill="rgb(174,207,189)"/>
<rect x="810" y="233" width="14" height="1" fill="rgb(175,208,190)"/>
<rect x="810" y="234" width="14" height="1" fill="rgb(177,208,191)"/>
<rect x="810" y="235" width="14" height="1" fill="rgb(178,209,192)"/>
<rect x="810" y="236" width="14" height="1" fill="rgb(179,210,193)"/>
<rect x="810" y="237" width="14" height="1" fill="rgb(180,210,193)"/>
<rect x="810" y="238" width="14" height="1" fill="rgb(181,211,194)"/>
<rect x="810" y="239" width="14" height="1" fill="rgb(182,212,195)"/>
<rect x="810" y="240" width="14" height="1" fill="rgb(184,213,196)"/>
<rect x="810" y="241" width="14" height="1" fill="rgb(185,213,197)"/>
<rect x="810" y="242" width="14" height="1" fill="rgb(186,214,198)"/>
<rect x="810" y="243" width="14" height="1" fill="rgb(187,215,198)"/>
<rect x="810" y="244" width="14" height="1" fill="rgb(188,215,199)"/>
<rect x="810" y="245" width="14" height="1" fill="rgb(189,216,200)"/>
<rect x="810" y="246" width="14" height="1" fill="rgb(190,217,201)"/>
<rect x="810" y="247" width="14" height="1" fill="rgb(192,217,202)"/>
<rect x="810" y="248" width="14" height="1" fill="rgb(193,218,203)"/>
<rect x="810" y="249" width="14" height="1" fill="rgb(194,219,203)"/>
<rect x="810" y="250" width="14" height="1" fill="rgb(195,219,204)"/>
<rect x="810" y="251" width="14" height="1" fill="rgb(196,220,205)"/>
<rect x="810" y="252" width="14" height="1" fill="rgb(197,221,206)"/>
<rect x="810" y="253" width="14" height="1" fill="rgb(198,221,207)"/>
<rect x="810" y="254" width="14" height="1" fill="rgb(200,222,208)"/>
<rect x="810" y="255" width="14" height="1" fill="rgb(201,223,209)"/>
<rect x="810" y="256" width="14" height="1" fill="rgb(202,223,209)"/>
<rect x="810" y="257" width="14" height="1" fill="rgb(203,224,210)"/>
<rect x="810" y="258" width="14" height="1" fill="rgb(204,225,211)"/>
<rect x="810" y="259" width="14" height="1" fill="rgb(205,225,212)"/>
<rect x="810" y="260" width="14" height="1" fill="rgb(207,226,213)"/>
<rect x="810" y="261" width="14" height="1" fill="rgb(208,227,214)"/>
<rect x="810" y="262" width="14" height="1" fill="rgb(209,227,214)"/>
<rect x="810" y="263" width="14" height="1" fill="rgb(210,228,215)"/>
<rect x="810" y="264" width="14" height="1" fill="rgb(211,229,216)"/>
<rect x="810" y="265" width="14" height="1" fill="rgb(212,229,217)"/>
<rect x="810" y="266" width="14" height="1" fill="rgb(213,230,218)"/>
<rect x="810" y="267" width="14" height="1" fill="rgb(215,231,219)"/>
<rect x="810" y="268" width="14" height="1" fill="rgb(216,231,219)"/>
<rect x="810" y="269" width="14" height="1" fill="rgb(217,232,220)"/>
<rect x="810" y="270" width="14" height="1" fill="rgb(218,233,221)"/>
<rect x="810" y="271" width="14" height="1" fill="rgb(219,233,222)"/>
<rect x="810" y="272" width="14" height="1" fill="rgb(220,234,223)"/>
<rect x="810" y="273" width="14" height="1" fill="rgb(221,235,224)"/>
<rect x="810" y="274" width="14" height="1" fill="rgb(223,235,224)"/>
<rect x="810" y="275" width="14" height="1" fill="rgb(224,236,225)"/>
<rect x="810" y="276" width="14" height="1" fill="rgb(225,237,226)"/>
<rect x="810" y="277" width="14" height="1" fill="rgb(226,237,227)"/>
<rect x="810" y="278" width="14" height="1" fill="rgb(227,238,228)"/>
<rect x="810" y="279" width="14" height="1" fill="rgb(228,239,229)"/>
<text x="830" y="86" font-size="12" fill="#666">High</text>
<text x="830" y="284" font-size="12" fill="#666">Low</text>
<text x="450" y="540" text-anchor="middle" font-size="15" fill="#666" font-style="italic">Schematic choropleth — each region colored by data value</text>
</svg>