<svg xmlns="http://www.w3.org/2000/svg" viewBox="0 0 800 720" font-family="Avenir, Helvetica, sans-serif">
<rect width="800" height="720" fill="none"/>
<path d="M 380 340 L 380.0 329.6 A 10.4 10.4 0 0 1 385.2 331.0 Z" fill="#267aba" opacity="0.45" stroke="#267aba" stroke-width="1" stroke-opacity="0.8"/>
<path d="M 380 340 L 390.9 321.1 A 21.8 21.8 0 0 1 398.9 329.1 Z" fill="#267aba" opacity="0.45" stroke="#267aba" stroke-width="1" stroke-opacity="0.8"/>
<path d="M 380 340 L 396.4 330.5 A 19.0 19.0 0 0 1 399.0 340.0 Z" fill="#267aba" opacity="0.45" stroke="#267aba" stroke-width="1" stroke-opacity="0.8"/>
<path d="M 380 340 L 487.2 340.0 A 107.2 107.2 0 0 1 472.9 393.6 Z" fill="#267aba" opacity="0.45" stroke="#267aba" stroke-width="1" stroke-opacity="0.8"/>
<path d="M 380 340 L 517.4 419.3 A 158.7 158.7 0 0 1 459.3 477.4 Z" fill="#267aba" opacity="0.45" stroke="#267aba" stroke-width="1" stroke-opacity="0.8"/>
<path d="M 380 340 L 457.3 474.0 A 154.7 154.7 0 0 1 380.0 494.7 Z" fill="#267aba" opacity="0.45" stroke="#267aba" stroke-width="1" stroke-opacity="0.8"/>
<path d="M 380 340 L 380.0 462.9 A 122.9 122.9 0 0 1 318.6 446.4 Z" fill="#267aba" opacity="0.45" stroke="#267aba" stroke-width="1" stroke-opacity="0.8"/>
<path d="M 380 340 L 299.2 479.9 A 161.6 161.6 0 0 1 240.1 420.8 Z" fill="#267aba" opacity="0.45" stroke="#267aba" stroke-width="1" stroke-opacity="0.8"/>
<path d="M 380 340 L 189.5 450.0 A 220.0 220.0 0 0 1 160.0 340.0 Z" fill="#267aba" opacity="0.45" stroke="#267aba" stroke-width="1" stroke-opacity="0.8"/>
<path d="M 380 340 L 100.0 340.0 A 280.0 280.0 0 0 1 137.5 200.0 Z" fill="#267aba" opacity="0.45" stroke="#267aba" stroke-width="1" stroke-opacity="0.8"/>
<path d="M 380 340 L 162.5 214.4 A 251.1 251.1 0 0 1 254.4 122.5 Z" fill="#267aba" opacity="0.45" stroke="#267aba" stroke-width="1" stroke-opacity="0.8"/>
<path d="M 380 340 L 284.1 173.8 A 191.9 191.9 0 0 1 380.0 148.1 Z" fill="#267aba" opacity="0.45" stroke="#267aba" stroke-width="1" stroke-opacity="0.8"/>
<path d="M 380 340 L 380.0 316.8 A 23.2 23.2 0 0 1 391.6 319.9 Z" fill="#424141" opacity="0.5" stroke="#424141" stroke-width="1" stroke-opacity="0.8"/>
<path d="M 380 340 L 389.4 323.7 A 18.8 18.8 0 0 1 396.3 330.6 Z" fill="#424141" opacity="0.5" stroke="#424141" stroke-width="1" stroke-opacity="0.8"/>
<path d="M 380 340 L 392.0 333.1 A 13.8 13.8 0 0 1 393.8 340.0 Z" fill="#424141" opacity="0.5" stroke="#424141" stroke-width="1" stroke-opacity="0.8"/>
<path d="M 380 340 L 407.1 340.0 A 27.1 27.1 0 0 1 403.5 353.6 Z" fill="#424141" opacity="0.5" stroke="#424141" stroke-width="1" stroke-opacity="0.8"/>
<path d="M 380 340 L 406.2 355.1 A 30.2 30.2 0 0 1 395.1 366.2 Z" fill="#424141" opacity="0.5" stroke="#424141" stroke-width="1" stroke-opacity="0.8"/>
<path d="M 380 340 L 403.0 379.9 A 46.1 46.1 0 0 1 380.0 386.1 Z" fill="#424141" opacity="0.5" stroke="#424141" stroke-width="1" stroke-opacity="0.8"/>
<path d="M 380 340 L 380.0 402.0 A 62.0 62.0 0 0 1 349.0 393.7 Z" fill="#424141" opacity="0.5" stroke="#424141" stroke-width="1" stroke-opacity="0.8"/>
<path d="M 380 340 L 351.4 389.6 A 57.3 57.3 0 0 1 330.4 368.6 Z" fill="#424141" opacity="0.5" stroke="#424141" stroke-width="1" stroke-opacity="0.8"/>
<path d="M 380 340 L 327.5 370.3 A 60.7 60.7 0 0 1 319.3 340.0 Z" fill="#424141" opacity="0.5" stroke="#424141" stroke-width="1" stroke-opacity="0.8"/>
<path d="M 380 340 L 284.1 340.0 A 95.9 95.9 0 0 1 296.9 292.0 Z" fill="#424141" opacity="0.5" stroke="#424141" stroke-width="1" stroke-opacity="0.8"/>
<path d="M 380 340 L 290.3 288.2 A 103.6 103.6 0 0 1 328.2 250.3 Z" fill="#424141" opacity="0.5" stroke="#424141" stroke-width="1" stroke-opacity="0.8"/>
<path d="M 380 340 L 343.7 277.2 A 72.5 72.5 0 0 1 380.0 267.5 Z" fill="#424141" opacity="0.5" stroke="#424141" stroke-width="1" stroke-opacity="0.8"/>
<path d="M 380 340 L 384.8 342.8 A 5.5 5.5 0 0 1 382.8 344.8 Z" fill="#9d162e" opacity="0.55" stroke="#9d162e" stroke-width="1" stroke-opacity="0.8"/>
<path d="M 380 340 L 404.8 383.0 A 49.6 49.6 0 0 1 380.0 389.6 Z" fill="#9d162e" opacity="0.55" stroke="#9d162e" stroke-width="1" stroke-opacity="0.8"/>
<path d="M 380 340 L 380.0 403.0 A 63.0 63.0 0 0 1 348.5 394.5 Z" fill="#9d162e" opacity="0.55" stroke="#9d162e" stroke-width="1" stroke-opacity="0.8"/>
<path d="M 380 340 L 332.9 421.6 A 94.2 94.2 0 0 1 298.4 387.1 Z" fill="#9d162e" opacity="0.55" stroke="#9d162e" stroke-width="1" stroke-opacity="0.8"/>
<path d="M 380 340 L 331.0 368.3 A 56.5 56.5 0 0 1 323.5 340.0 Z" fill="#9d162e" opacity="0.55" stroke="#9d162e" stroke-width="1" stroke-opacity="0.8"/>
<path d="M 380 340 L 331.5 340.0 A 48.5 48.5 0 0 1 338.0 315.7 Z" fill="#9d162e" opacity="0.55" stroke="#9d162e" stroke-width="1" stroke-opacity="0.8"/>
<path d="M 380 340 L 349.4 322.3 A 35.3 35.3 0 0 1 362.3 309.4 Z" fill="#9d162e" opacity="0.55" stroke="#9d162e" stroke-width="1" stroke-opacity="0.8"/>
<path d="M 380 340 L 364.3 312.9 A 31.3 31.3 0 0 1 380.0 308.7 Z" fill="#9d162e" opacity="0.55" stroke="#9d162e" stroke-width="1" stroke-opacity="0.8"/>
<text x="460" y="41" text-anchor="middle" dominant-baseline="central" font-size="16" font-weight="600" fill="#424141">Apr</text>
<text x="599" y="121" text-anchor="middle" dominant-baseline="central" font-size="16" font-weight="600" fill="#424141">May</text>
<text x="679" y="260" text-anchor="middle" dominant-baseline="central" font-size="16" font-weight="600" fill="#424141">Jun</text>
<text x="679" y="420" text-anchor="middle" dominant-baseline="central" font-size="16" font-weight="600" fill="#424141">Jul</text>
<text x="599" y="559" text-anchor="middle" dominant-baseline="central" font-size="16" font-weight="600" fill="#424141">Aug</text>
<text x="460" y="639" text-anchor="middle" dominant-baseline="central" font-size="16" font-weight="600" fill="#424141">Sep</text>
<text x="300" y="639" text-anchor="middle" dominant-baseline="central" font-size="16" font-weight="600" fill="#424141">Oct</text>
<text x="161" y="559" text-anchor="middle" dominant-baseline="central" font-size="16" font-weight="600" fill="#424141">Nov</text>
<text x="81" y="420" text-anchor="middle" dominant-baseline="central" font-size="16" font-weight="600" fill="#424141">Dec</text>
<text x="81" y="260" text-anchor="middle" dominant-baseline="central" font-size="16" font-weight="600" fill="#424141">Jan</text>
<text x="161" y="121" text-anchor="middle" dominant-baseline="central" font-size="16" font-weight="600" fill="#424141">Feb</text>
<text x="300" y="41" text-anchor="middle" dominant-baseline="central" font-size="16" font-weight="600" fill="#424141">Mar</text>
<rect x="620" y="15" width="18" height="18" fill="#267aba" opacity="0.45" stroke="#267aba" stroke-width="0.5"/>
<text x="645" y="29" font-size="14" fill="#424141">Preventable diseases</text>
<rect x="620" y="45" width="18" height="18" fill="#424141" opacity="0.5" stroke="#424141" stroke-width="0.5"/>
<text x="645" y="59" font-size="14" fill="#424141">Other causes</text>
<rect x="620" y="75" width="18" height="18" fill="#9d162e" opacity="0.55" stroke="#9d162e" stroke-width="0.5"/>
<text x="645" y="89" font-size="14" fill="#424141">Wounds</text>
<text x="400" y="700" text-anchor="middle" font-size="13" fill="#666" font-style="italic">Causes of mortality in the British Army, Apr 1854 – Mar 1855 — Florence Nightingale</text>
</svg>