<svg xmlns="http://www.w3.org/2000/svg" viewBox="0 0 800 700" width="800" height="700">
  <defs>
    <style>
      text { font-family: Avenir, Helvetica, sans-serif; }
    </style>
  </defs>
  <!-- Transparent background -->
  <rect width="800" height="700" fill="none"/>

  <g transform="translate(400,330)">
    <!-- April: index=0 -->
    <path d="M0,0 L-20.4,-76.0 A78.7,78.7 0 0,1 20.4,-76.0 Z" fill="#267aba" opacity="0.4"/>
    <path d="M0,0 L-6.1,-22.9 A23.7,23.7 0 0,1 6.1,-22.9 Z" fill="#9d162e" opacity="0.4"/>
    <path d="M0,0 L-9.3,-34.7 A36.0,36.0 0 0,1 9.3,-34.7 Z" fill="#424141" opacity="0.4"/>
    <!-- May: index=1 -->
    <path d="M0,0 L19.4,-72.4 A75.0,75.0 0 0,1 53.0,-53.0 Z" fill="#267aba" opacity="0.4"/>
    <path d="M0,0 L6.1,-22.9 A23.7,23.7 0 0,1 16.8,-16.8 Z" fill="#9d162e" opacity="0.4"/>
    <path d="M0,0 L9.7,-36.2 A37.5,37.5 0 0,1 26.5,-26.5 Z" fill="#424141" opacity="0.4"/>
    <!-- June: index=2 -->
    <path d="M0,0 L51.7,-51.7 A73.1,73.1 0 0,1 70.6,-18.9 Z" fill="#267aba" opacity="0.4"/>
    <path d="M0,0 L16.8,-16.8 A23.7,23.7 0 0,1 22.9,-6.1 Z" fill="#9d162e" opacity="0.4"/>
    <path d="M0,0 L23.7,-23.7 A33.5,33.5 0 0,1 32.4,-8.7 Z" fill="#424141" opacity="0.4"/>
    <!-- July: index=3 -->
    <path d="M0,0 L99.9,-26.8 A103.4,103.4 0 0,1 99.9,26.8 Z" fill="#267aba" opacity="0.4"/>
    <path d="M0,0 L51.2,-13.7 A53.0,53.0 0 0,1 51.2,13.7 Z" fill="#9d162e" opacity="0.4"/>
    <path d="M0,0 L34.7,-9.3 A36.0,36.0 0 0,1 34.7,9.3 Z" fill="#424141" opacity="0.4"/>
    <!-- August: index=4 -->
    <path d="M0,0 L107.5,28.8 A111.2,111.2 0 0,1 78.7,78.7 Z" fill="#267aba" opacity="0.4"/>
    <path d="M0,0 L64.8,17.4 A67.1,67.1 0 0,1 47.4,47.4 Z" fill="#9d162e" opacity="0.4"/>
    <path d="M0,0 L41.0,11.0 A42.4,42.4 0 0,1 30.0,30.0 Z" fill="#424141" opacity="0.4"/>
    <!-- September: index=5 -->
    <path d="M0,0 L99.2,99.2 A140.3,140.3 0 0,1 36.3,135.5 Z" fill="#267aba" opacity="0.4"/>
    <path d="M0,0 L37.5,37.5 A53.0,53.0 0 0,1 13.7,51.2 Z" fill="#9d162e" opacity="0.4"/>
    <path d="M0,0 L28.1,28.1 A39.7,39.7 0 0,1 10.3,38.3 Z" fill="#424141" opacity="0.4"/>
    <!-- October: index=6 -->
    <path d="M0,0 L43.0,160.4 A166.0,166.0 0 0,1 -43.0,160.4 Z" fill="#267aba" opacity="0.4"/>
    <path d="M0,0 L10.6,39.7 A41.1,41.1 0 0,1 -10.6,39.7 Z" fill="#9d162e" opacity="0.4"/>
    <path d="M0,0 L9.7,36.2 A37.5,37.5 0 0,1 -9.7,36.2 Z" fill="#424141" opacity="0.4"/>
    <!-- November: index=7 -->
    <path d="M0,0 L-51.4,191.7 A198.4,198.4 0 0,1 -140.3,140.3 Z" fill="#267aba" opacity="0.4"/>
    <path d="M0,0 L-11.0,41.0 A42.4,42.4 0 0,1 -30.0,30.0 Z" fill="#9d162e" opacity="0.4"/>
    <path d="M0,0 L-10.1,37.6 A39.0,39.0 0 0,1 -27.6,27.6 Z" fill="#424141" opacity="0.4"/>
    <!-- December: index=8 -->
    <path d="M0,0 L-175.9,175.9 A248.7,248.7 0 0,1 -240.3,64.4 Z" fill="#267aba" opacity="0.4"/>
    <path d="M0,0 L-33.5,33.5 A47.4,47.4 0 0,1 -45.8,12.3 Z" fill="#9d162e" opacity="0.4"/>
    <path d="M0,0 L-29.0,29.0 A41.1,41.1 0 0,1 -39.7,10.6 Z" fill="#424141" opacity="0.4"/>
    <!-- January: index=9 -->
    <path d="M0,0 L-231.7,62.1 A239.9,239.9 0 0,1 -231.7,-62.1 Z" fill="#267aba" opacity="0.4"/>
    <path d="M0,0 L-46.9,12.6 A48.6,48.6 0 0,1 -46.9,-12.6 Z" fill="#9d162e" opacity="0.4"/>
    <path d="M0,0 L-48.1,12.9 A49.7,49.7 0 0,1 -48.1,-12.9 Z" fill="#424141" opacity="0.4"/>
    <!-- February: index=10 -->
    <path d="M0,0 L-194.4,-52.1 A201.2,201.2 0 0,1 -142.3,-142.3 Z" fill="#267aba" opacity="0.4"/>
    <path d="M0,0 L-36.2,-9.7 A37.5,37.5 0 0,1 -26.5,-26.5 Z" fill="#9d162e" opacity="0.4"/>
    <path d="M0,0 L-39.7,-10.6 A41.1,41.1 0 0,1 -29.0,-29.0 Z" fill="#424141" opacity="0.4"/>
    <!-- March: index=11 -->
    <path d="M0,0 L-112.5,-112.5 A159.1,159.1 0 0,1 -41.2,-153.7 Z" fill="#267aba" opacity="0.4"/>
    <path d="M0,0 L-20.5,-20.5 A29.0,29.0 0 0,1 -7.5,-28.1 Z" fill="#9d162e" opacity="0.4"/>
    <path d="M0,0 L-26.5,-26.5 A37.5,37.5 0 0,1 -9.7,-36.2 Z" fill="#424141" opacity="0.4"/>

    <!-- Month labels around outside at radius 275 -->
    <text x="0.0" y="-275.0" text-anchor="middle" dominant-baseline="central" font-size="22" font-weight="bold" fill="#424141">Apr</text>
    <text x="137.5" y="-238.2" text-anchor="middle" dominant-baseline="central" font-size="22" font-weight="bold" fill="#424141">May</text>
    <text x="238.2" y="-137.5" text-anchor="middle" dominant-baseline="central" font-size="22" font-weight="bold" fill="#424141">Jun</text>
    <text x="275.0" y="-0.0" text-anchor="middle" dominant-baseline="central" font-size="22" font-weight="bold" fill="#424141">Jul</text>
    <text x="238.2" y="137.5" text-anchor="middle" dominant-baseline="central" font-size="22" font-weight="bold" fill="#424141">Aug</text>
    <text x="137.5" y="238.2" text-anchor="middle" dominant-baseline="central" font-size="22" font-weight="bold" fill="#424141">Sep</text>
    <text x="0.0" y="275.0" text-anchor="middle" dominant-baseline="central" font-size="22" font-weight="bold" fill="#424141">Oct</text>
    <text x="-137.5" y="238.2" text-anchor="middle" dominant-baseline="central" font-size="22" font-weight="bold" fill="#424141">Nov</text>
    <text x="-238.2" y="137.5" text-anchor="middle" dominant-baseline="central" font-size="22" font-weight="bold" fill="#424141">Dec</text>
    <text x="-275.0" y="0.0" text-anchor="middle" dominant-baseline="central" font-size="22" font-weight="bold" fill="#424141">Jan</text>
    <text x="-238.2" y="-137.5" text-anchor="middle" dominant-baseline="central" font-size="22" font-weight="bold" fill="#424141">Feb</text>
    <text x="-137.5" y="-238.2" text-anchor="middle" dominant-baseline="central" font-size="22" font-weight="bold" fill="#424141">Mar</text>
  </g>

  <!-- Legend -->
  <rect x="600" y="18" width="22" height="22" fill="#267aba" opacity="0.4" rx="3"/>
  <text x="630" y="35" font-size="18" fill="#424141" font-weight="bold">Preventable diseases</text>
  <rect x="600" y="48" width="22" height="22" fill="#9d162e" opacity="0.4" rx="3"/>
  <text x="630" y="65" font-size="18" fill="#424141" font-weight="bold">Wounds</text>
  <rect x="600" y="78" width="22" height="22" fill="#424141" opacity="0.4" rx="3"/>
  <text x="630" y="95" font-size="18" fill="#424141" font-weight="bold">Other causes</text>

  <!-- Caption -->
  <text x="400" y="680" text-anchor="middle" font-size="16" fill="#424141" font-style="italic">Causes of mortality in the British Army, 1854&#x2013;1855 &#x2014; Florence Nightingale</text>
</svg>
